:FULLY-SPECIFIED
:FORCE-ALL-JOINTS-BE-3DOF
:DEGREES
816
root -4.28285 14.71 -40.3589 394.296 -74.9327 334.44
lfemur -67.0249 17.3646 -22.1307
ltibia 55.4819 -0 0
lfoot -1.84417 15.0376 0.000347414
ltoes -15.2359 0 0
rfemur -29.1226 -4.32179 21.9253
rtibia 70.1378 -0 0
rfoot -28.7756 -29.8338 0.00251862
rtoes -27.3764 0 0
lowerback 18.6818 1.0569 3.88683
upperback 0.692199 2.43632 3.23556
thorax -9.73297 1.01338 0.680001
lowerneck -2.34904 12.7921 3.74269
upperneck -1.59064 17.0358 -9.82482
head 1.16155 8.47604 -3.32071
lclavicle -4.67144e-15 7.95139e-15 0
lhumerus 100.732 -33.037 20.2489
lradius 96.911 0 0
lwrist 22.9583 0 0
lhand -6.48187 23.2503 0
lfingers 7.12502 0 0
lthumb 19.3691 52.3057 0
rclavicle -4.67144e-15 7.95139e-15 0
rhumerus 23.1582 33.7787 -57.7201
rradius 64.2761 0 0
rwrist -11.5006 0 0
rhand -14.0781 -42.9577 0
rfingers 7.12502 0 0
rthumb 12.0538 -72.5905 0
817
root -4.14739 14.7229 -40.3834 392.027 -74.3767 336.921
lfemur -66.2806 17.7507 -21.0367
ltibia 56.5181 -0 0
lfoot -1.75519 15.0398 0.000354227
ltoes -14.4341 0 0
rfemur -29.8017 -5.22485 21.9736
rtibia 70.1122 -0 0
rfoot -28.7673 -29.6685 0.00260301
rtoes -26.6942 0 0
lowerback 18.6255 1.05804 3.69067
upperback 0.603956 2.39429 3.12691
thorax -9.80266 1.00147 0.683967
lowerneck -2.12521 12.7933 4.04046
upperneck -1.75224 17.0299 -10.1705
head 1.13498 8.48043 -3.50179
lclavicle 3.94588e-14 9.14409e-15 0
lhumerus 102.324 -33.4622 19.5247
lradius 98.5863 0 0
lwrist 21.6963 0 0
lhand -7.92992 23.72 0
lfingers 7.12502 0 0
lthumb 17.9763 52.9093 0
rclavicle 3.94588e-14 9.14409e-15 0
rhumerus 24.6641 35.0188 -56.9727
rradius 64.3228 0 0
rwrist -10.5079 0 0
rhand -13.7159 -42.5113 0
rfingers 7.12502 0 0
rthumb 12.403 -72.1234 0
818
root -4.01894 14.7402 -40.4004 390.069 -73.9321 339.063
lfemur -65.527 18.1231 -19.9351
ltibia 57.5543 -0 0
lfoot -1.66621 15.042 0.000357634
ltoes -13.6323 0 0
rfemur -30.4826 -6.12728 22.0328
rtibia 70.0866 -0 0
rfoot -28.7589 -29.5031 0.00266329
rtoes -26.012 0 0
lowerback 18.5004 0.991298 3.3944
upperback 0.595062 2.23409 3.05112
thorax -9.75189 0.940477 0.812816
lowerneck -2.17975 12.9299 3.99244
upperneck -1.76273 17.2152 -10.3351
head 1.16764 8.57113 -3.53319
lclavicle -6.36111e-15 2.54444e-14 0
lhumerus 103.385 -33.6793 19.0689
lradius 99.9979 0 0
lwrist 20.337 0 0
lhand -8.78359 23.8601 0
lfingers 7.12502 0 0
lthumb 17.1547 53.1228 0
rclavicle -6.36111e-15 2.54444e-14 0
rhumerus 26.4542 36.5749 -56.0431
rradius 64.4635 0 0
rwrist -9.88303 0 0
rhand -13.575 -41.9731 0
rfingers 7.12502 0 0
rthumb 12.5389 -71.5769 0
819
root -3.89351 14.7591 -40.4176 388.269 -73.3753 341.062
lfemur -64.7644 18.4817 -18.8262
ltibia 58.5905 -0 0
lfoot -1.57722 15.0442 0.000357634
ltoes -12.8304 0 0
rfemur -31.1658 -7.02895 22.1029
rtibia 70.0611 -0 0
rfoot -28.7506 -29.3378 0.00269946
rtoes -25.3298 0 0
lowerback 18.3635 0.884077 3.07114
upperback 0.559063 2.02232 3.03753
thorax -9.72692 0.857189 1.03849
lowerneck -2.41447 13.1137 3.7429
upperneck -1.53685 17.4792 -10.2564
head 1.26847 8.69224 -3.42734
lclavicle -2.74323e-14 5.60573e-14 0
lhumerus 104.038 -33.9204 18.8844
lradius 101.255 0 0
lwrist 19.2062 0 0
lhand -9.25721 23.7749 0
lfingers 7.12502 0 0
lthumb 16.6988 53.0767 0
rclavicle -2.74323e-14 5.60573e-14 0
rhumerus 28.3439 38.2 -54.8682
rradius 64.6218 0 0
rwrist -9.69531 0 0
rhand -13.7846 -41.505 0
rfingers 7.12502 0 0
rthumb 12.3368 -71.1211 0
820
root -3.77527 14.776 -40.4307 386.453 -72.8675 342.986
lfemur -63.993 18.8261 -17.71
ltibia 59.6267 -0 0
lfoot -1.48824 15.0464 0.000354227
ltoes -12.0286 0 0
rfemur -31.8514 -7.92972 22.184
rtibia 70.0355 -0 0
rfoot -28.7422 -29.1725 0.00271152
rtoes -24.6475 0 0
lowerback 18.2522 0.885413 3.26605
upperback 0.490623 2.02441 2.54879
thorax -9.71323 0.840823 0.394933
lowerneck -2.17725 12.9692 4.27036
upperneck -1.64931 17.2716 -10.2103
head 1.222 8.59733 -3.52939
lclavicle -2.64384e-14 1.59028e-15 0
lhumerus 105.599 -34.4529 17.9737
lradius 102.187 0 0
lwrist 18.6607 0 0
lhand -9.58125 23.1628 0
lfingers 7.12502 0 0
lthumb 16.3869 52.4906 0
rclavicle -2.64384e-14 1.59028e-15 0
rhumerus 29.247 39.0203 -54.6099
rradius 64.7872 0 0
rwrist -9.17263 0 0
rhand -13.6536 -40.8712 0
rfingers 7.12502 0 0
rthumb 12.4631 -70.4795 0
821
root -3.66157 14.7792 -40.4415 384.902 -72.3114 344.638
lfemur -63.2131 19.1562 -16.5867
ltibia 60.6629 -0 0
lfoot -1.39925 15.0486 0.000347414
ltoes -11.2268 0 0
rfemur -32.5399 -8.82946 22.2762
rtibia 70.0099 -0 0
rfoot -28.7338 -29.0072 0.00269946
rtoes -23.9653 0 0
lowerback 18.3645 0.386855 4.72491
upperback 0.315096 1.56706 1.18217
thorax -9.8966 0.520432 -1.80598
lowerneck -2.18488 13.0674 5.22711
upperneck -1.63087 17.3761 -9.35259
head 1.23752 8.65083 -3.39655
lclavicle 4.22417e-15 7.85199e-15 0
lhumerus 106.639 -34.9364 15.8949
lradius 103.336 0 0
lwrist 19.065 0 0
lhand -8.96267 23.2973 0
lfingers 7.12502 0 0
lthumb 16.9824 52.5749 0
rclavicle 4.22417e-15 7.85199e-15 0
rhumerus 29.8969 39.8657 -56.3648
rradius 64.61 0 0
rwrist -8.40454 0 0
rhand -13.7352 -40.2017 0
rfingers 7.12502 0 0
rthumb 12.3844 -69.8148 0
822
root -3.55096 14.8077 -40.4512 383.904 -71.7614 345.654
lfemur -62.425 19.4717 -15.4565
ltibia 61.699 -0 0
lfoot -1.31027 15.0508 0.000337195
ltoes -10.425 0 0
rfemur -33.2317 -9.72804 22.3796
rtibia 69.9844 -0 0
rfoot -28.7255 -28.8419 0.00266329
rtoes -23.2831 0 0
lowerback 18.3057 0.399199 4.47946
upperback 0.266515 1.53442 1.19925
thorax -9.92616 0.517131 -1.63907
lowerneck -2.19703 13.1186 5.12933
upperneck -1.39431 17.4598 -9.24841
head 1.3024 8.68943 -3.33304
lclavicle 2.20154e-14 -1.64991e-14 0
lhumerus 106.928 -35.326 16.0142
lradius 104.017 0 0
lwrist 20.0769 0 0
lhand -8.95563 23.1951 0
lfingers 7.12502 0 0
lthumb 16.9891 52.4721 0
rclavicle 2.20154e-14 -1.64991e-14 0
rhumerus 31.2424 41.2947 -55.4573
rradius 64.6044 0 0
rwrist -7.79229 0 0
rhand -14.1455 -39.7879 0
rfingers 7.12502 0 0
rthumb 11.9888 -69.4246 0
823
root -3.44487 14.8291 -40.4547 382.977 -71.1712 346.593
lfemur -61.6289 19.7724 -14.3197
ltibia 62.7352 -0 0
lfoot -1.22129 15.053 0.000323569
ltoes -9.62313 0 0
rfemur -33.927 -10.6253 22.4943
rtibia 69.9588 -0 0
rfoot -28.7171 -28.6765 0.00260301
rtoes -22.6009 0 0
lowerback 18.12 1.26021 3.18359
upperback 0.162983 2.46504 1.89471
thorax -9.96737 1.03897 -0.38617
lowerneck -1.99271 12.511 5.64096
upperneck -0.958507 16.6878 -10.0369
head 1.48471 8.2966 -3.71696
lclavicle 2.43511e-14 3.29983e-14 0
lhumerus 108.386 -36.207 16.9678
lradius 104.579 0 0
lwrist 21.6454 0 0
lhand -9.1099 23.552 0
lfingers 7.12502 0 0
lthumb 16.8406 52.8418 0
rclavicle 2.43511e-14 3.29983e-14 0
rhumerus 31.3098 41.7727 -53.4401
rradius 64.8323 0 0
rwrist -6.99287 0 0
rhand -15.7842 -40.8087 0
rfingers 7.12502 0 0
rthumb 10.4084 -70.5311 0
824
root -3.34382 14.8465 -40.4555 382.087 -70.605 347.473
lfemur -60.8251 20.0582 -13.1764
ltibia 63.7714 -0 0
lfoot -1.1323 15.0552 0.000306538
ltoes -8.82131 0 0
rfemur -34.6263 -11.5211 22.6204
rtibia 69.9332 -0 0
rfoot -28.7088 -28.5112 0.00251862
rtoes -21.9187 0 0
lowerback 18.0472 1.24507 2.97851
upperback 0.101762 2.40391 1.88824
thorax -10.0039 1.02047 -0.260176
lowerneck -2.01265 12.525 5.63868
upperneck -0.727495 16.7194 -9.91606
head 1.5539 8.30866 -3.66563
lclavicle 4.1049e-14 -7.15625e-15 0
lhumerus 108.322 -36.4429 17.1287
lradius 104.978 0 0
lwrist 23.4585 0 0
lhand -9.65107 24.4905 0
lfingers 7.12502 0 0
lthumb 16.3196 53.8238 0
rclavicle 4.1049e-14 -7.15625e-15 0
rhumerus 32.6413 43.4123 -52.3106
rradius 64.9283 0 0
rwrist -6.71754 0 0
rhand -17.0453 -40.7015 0
rfingers 7.12502 0 0
rthumb 9.19162 -70.4812 0
825
root -3.24692 14.8623 -40.4504 381.209 -70.0515 348.274
lfemur -60.014 20.3288 -12.0269
ltibia 64.8076 -0 0
lfoot -1.04332 15.0574 0.0002861
ltoes -8.01948 0 0
rfemur -35.33 -12.4154 22.7582
rtibia 69.9077 -0 0
rfoot -28.7004 -28.3459 0.00241012
rtoes -21.8112 0 0
lowerback 18.0322 1.19034 2.84871
upperback 0.0360933 2.30602 1.85513
thorax -10.0741 0.979448 -0.197589
lowerneck -2.00102 12.5356 5.6227
upperneck -0.508851 16.7459 -9.78411
head 1.61058 8.31928 -3.61161
lclavicle 9.64106e-15 9.14409e-15 0
lhumerus 107.927 -36.5591 17.2488
lradius 105.375 0 0
lwrist 25.0493 0 0
lhand -10.5332 25.9624 0
lfingers 7.12502 0 0
lthumb 15.4701 55.3634 0
rclavicle 9.64106e-15 9.14409e-15 0
rhumerus 33.9564 45.0451 -51.2012
rradius 65.0475 0 0
rwrist -5.74404 0 0
rhand -15.7495 -38.5917 0
rfingers 7.12502 0 0
rthumb 10.4418 -68.3124 0
826
root -3.151 14.8778 -40.4449 380.533 -69.4565 348.872
lfemur -59.1958 20.584 -10.8715
ltibia 65.8438 -0 0
lfoot -0.95434 15.0595 0.000262256
ltoes -7.21765 0 0
rfemur -34.992 -12.7113 22.4095
rtibia 69.8821 -0 0
rfoot -28.6921 -28.1806 0.00227751
rtoes -21.7038 0 0
lowerback 18.022 1.19643 2.67467
upperback -0.0403435 2.28798 1.90789
thorax -10.1629 0.980534 -0.0371849
lowerneck -2.07832 12.4938 5.48027
upperneck -0.175818 16.7069 -9.58403
head 1.69583 8.29331 -3.50893
lclavicle 2.40529e-14 -1.15295e-14 0
lhumerus 107.29 -36.6392 17.412
lradius 105.974 0 0
lwrist 26.2637 0 0
lhand -11.9723 27.8197 0
lfingers 7.12502 0 0
lthumb 14.0837 57.3225 0
rclavicle 2.40529e-14 -1.15295e-14 0
rhumerus 35.2474 46.6472 -49.7915
rradius 65.3453 0 0
rwrist -4.94632 0 0
rhand -16.4138 -38.7141 0
rfingers 7.12502 0 0
rthumb 9.80094 -68.466 0
827
root -3.05904 14.8994 -40.4357 379.799 -68.8628 349.459
lfemur -58.371 20.8236 -9.71041
ltibia 66.88 -0 0
lfoot -0.865359 15.0617 0.000235006
ltoes -6.41583 0 0
rfemur -34.6517 -13.0052 22.0586
rtibia 69.8565 -0 0
rfoot -28.6837 -28.0153 0.0021208
rtoes -21.5963 0 0
lowerback 18.1129 1.32579 2.36503
upperback -0.141162 2.41587 2.02483
thorax -10.3431 1.05838 0.229453
lowerneck -2.24165 12.3458 5.4894
upperneck 0.325547 16.5327 -9.46573
head 1.86507 8.19416 -3.45511
lclavicle 7.95139e-16 -3.57812e-15 0
lhumerus 106.683 -36.7711 17.5672
lradius 106.783 0 0
lwrist 26.9177 0 0
lhand -13.9706 29.8388 0
lfingers 7.12502 0 0
lthumb 12.1574 59.4655 0
rclavicle 7.95139e-16 -3.57812e-15 0
rhumerus 36.2706 48.1082 -48.272
rradius 65.7907 0 0
rwrist -4.02465 0 0
rhand -16.3857 -38.6249 0
rfingers 7.12502 0 0
rthumb 9.82805 -68.3755 0
828
root -2.9685 14.9108 -40.4235 379.211 -68.261 349.888
lfemur -57.5399 21.0476 -8.54394
ltibia 67.9162 -0 0
lfoot -0.77638 15.0639 0.000204351
ltoes -5.614 0 0
rfemur -34.3092 -13.2971 21.7055
rtibia 69.831 -0 0
rfoot -28.6754 -27.85 0.00193998
rtoes -21.4888 0 0
lowerback 18.1301 1.27698 2.31909
upperback -0.166295 2.34573 2.03942
thorax -10.384 1.02791 0.289449
lowerneck -2.36375 12.2986 5.43043
upperneck 0.547513 16.4779 -9.36018
head 1.93901 8.1604 -3.39911
lclavicle 3.48867e-14 9.14409e-15 0
lhumerus 105.435 -36.6395 17.6282
lradius 107.764 0 0
lwrist 26.8841 0 0
lhand -16.3127 32.1089 0
lfingers 7.12502 0 0
lthumb 9.8985 61.8562 0
rclavicle 3.48867e-14 9.14409e-15 0
rhumerus 37.8229 49.6921 -46.5049
rradius 66.4969 0 0
rwrist -3.38428 0 0
rhand -16.5865 -39.3294 0
rfingers 7.12502 0 0
rthumb 9.63429 -69.0891 0
829
root -2.87966 14.9182 -40.4074 378.684 -67.6293 350.225
lfemur -56.7028 21.2556 -7.3724
ltibia 68.9524 -0 0
lfoot -0.687401 15.0661 0.00017029
ltoes -4.81218 0 0
rfemur -33.9644 -13.5869 21.3502
rtibia 69.8054 -0 0
rfoot -28.667 -27.6847 0.00173508
rtoes -21.3813 0 0
lowerback 18.21 1.23635 2.34966
upperback -0.224015 2.30868 2.07725
thorax -10.4948 1.00869 0.321363
lowerneck -2.44656 12.2902 5.28659
upperneck 0.800097 16.4795 -9.21823
head 2.00866 8.1553 -3.31586
lclavicle -4.8901e-14 6.75868e-15 0
lhumerus 104.069 -36.5531 17.6836
lradius 108.816 0 0
lwrist 25.7485 0 0
lhand -18.4648 34.1072 0
lfingers 7.12502 0 0
lthumb 7.82174 63.9425 0
rclavicle -4.8901e-14 6.75868e-15 0
rhumerus 39.307 51.2753 -44.589
rradius 67.4337 0 0
rwrist -2.89494 0 0
rhand -17.516 -41.1 0
rfingers 7.12502 0 0
rthumb 8.73745 -70.8991 0
